<mxfile host="app.diagrams.net" agent="Mozilla/5.0 (X11; Linux x86_64; rv:100.0) Gecko/20100101 Firefox/100.0" version="26.0.14">
  <diagram name="Pagina-1" id="e3nUn_sOAWmIjIwdtEHv">
    <mxGraphModel dx="679" dy="1245" grid="1" gridSize="10" guides="1" tooltips="1" connect="1" arrows="1" fold="1" page="0" pageScale="1" pageWidth="827" pageHeight="1169" math="0" shadow="0">
      <root>
        <mxCell id="0" />
        <mxCell id="1" parent="0" />
        <mxCell id="c3Q7BcxyrKTCQpeKYszL-5" value="" style="edgeStyle=none;curved=1;rounded=0;orthogonalLoop=1;jettySize=auto;html=1;fontSize=12;startSize=8;endSize=8;" edge="1" parent="1" source="c3Q7BcxyrKTCQpeKYszL-1" target="c3Q7BcxyrKTCQpeKYszL-4">
          <mxGeometry relative="1" as="geometry" />
        </mxCell>
        <mxCell id="c3Q7BcxyrKTCQpeKYszL-1" value="START" style="ellipse;whiteSpace=wrap;html=1;" vertex="1" parent="1">
          <mxGeometry x="100" y="-210" width="120" height="80" as="geometry" />
        </mxCell>
        <mxCell id="c3Q7BcxyrKTCQpeKYszL-7" value="" style="edgeStyle=none;curved=1;rounded=0;orthogonalLoop=1;jettySize=auto;html=1;fontSize=12;startSize=8;endSize=8;" edge="1" parent="1" source="c3Q7BcxyrKTCQpeKYszL-4" target="c3Q7BcxyrKTCQpeKYszL-6">
          <mxGeometry relative="1" as="geometry" />
        </mxCell>
        <mxCell id="c3Q7BcxyrKTCQpeKYszL-4" value="Read n" style="shape=parallelogram;perimeter=parallelogramPerimeter;whiteSpace=wrap;html=1;fixedSize=1;" vertex="1" parent="1">
          <mxGeometry x="100" y="-80" width="120" height="60" as="geometry" />
        </mxCell>
        <mxCell id="c3Q7BcxyrKTCQpeKYszL-10" value="" style="edgeStyle=none;curved=1;rounded=0;orthogonalLoop=1;jettySize=auto;html=1;fontSize=12;startSize=8;endSize=8;" edge="1" parent="1" source="c3Q7BcxyrKTCQpeKYszL-6" target="c3Q7BcxyrKTCQpeKYszL-9">
          <mxGeometry relative="1" as="geometry" />
        </mxCell>
        <mxCell id="c3Q7BcxyrKTCQpeKYszL-15" value="FALSE" style="edgeLabel;html=1;align=center;verticalAlign=middle;resizable=0;points=[];fontSize=12;" vertex="1" connectable="0" parent="c3Q7BcxyrKTCQpeKYszL-10">
          <mxGeometry x="-0.1778" relative="1" as="geometry">
            <mxPoint as="offset" />
          </mxGeometry>
        </mxCell>
        <mxCell id="c3Q7BcxyrKTCQpeKYszL-17" value="" style="edgeStyle=none;curved=1;rounded=0;orthogonalLoop=1;jettySize=auto;html=1;fontSize=12;startSize=8;endSize=8;" edge="1" parent="1" source="c3Q7BcxyrKTCQpeKYszL-6" target="c3Q7BcxyrKTCQpeKYszL-16">
          <mxGeometry relative="1" as="geometry" />
        </mxCell>
        <mxCell id="c3Q7BcxyrKTCQpeKYszL-18" value="TRUE" style="edgeLabel;html=1;align=center;verticalAlign=middle;resizable=0;points=[];fontSize=12;" vertex="1" connectable="0" parent="c3Q7BcxyrKTCQpeKYszL-17">
          <mxGeometry x="-0.18" relative="1" as="geometry">
            <mxPoint as="offset" />
          </mxGeometry>
        </mxCell>
        <mxCell id="c3Q7BcxyrKTCQpeKYszL-6" value="&lt;div&gt;n&amp;gt;0&lt;/div&gt;&lt;div&gt;AND&lt;/div&gt;&lt;div&gt;n%1==0&lt;br&gt;&lt;/div&gt;" style="rhombus;whiteSpace=wrap;html=1;" vertex="1" parent="1">
          <mxGeometry x="100" y="20" width="120" height="80" as="geometry" />
        </mxCell>
        <mxCell id="c3Q7BcxyrKTCQpeKYszL-12" value="" style="edgeStyle=none;curved=1;rounded=0;orthogonalLoop=1;jettySize=auto;html=1;fontSize=12;startSize=8;endSize=8;" edge="1" parent="1" source="c3Q7BcxyrKTCQpeKYszL-9" target="c3Q7BcxyrKTCQpeKYszL-11">
          <mxGeometry relative="1" as="geometry" />
        </mxCell>
        <mxCell id="c3Q7BcxyrKTCQpeKYszL-9" value="" style="shape=waypoint;sketch=0;size=6;pointerEvents=1;points=[];fillColor=default;resizable=0;rotatable=0;perimeter=centerPerimeter;snapToPoint=1;" vertex="1" parent="1">
          <mxGeometry y="50" width="20" height="20" as="geometry" />
        </mxCell>
        <mxCell id="c3Q7BcxyrKTCQpeKYszL-13" value="" style="edgeStyle=none;curved=1;rounded=0;orthogonalLoop=1;jettySize=auto;html=1;fontSize=12;startSize=8;endSize=8;" edge="1" parent="1" source="c3Q7BcxyrKTCQpeKYszL-11" target="c3Q7BcxyrKTCQpeKYszL-4">
          <mxGeometry relative="1" as="geometry" />
        </mxCell>
        <mxCell id="c3Q7BcxyrKTCQpeKYszL-11" value="" style="shape=waypoint;sketch=0;size=6;pointerEvents=1;points=[];fillColor=default;resizable=0;rotatable=0;perimeter=centerPerimeter;snapToPoint=1;" vertex="1" parent="1">
          <mxGeometry y="-60" width="20" height="20" as="geometry" />
        </mxCell>
        <mxCell id="c3Q7BcxyrKTCQpeKYszL-20" value="" style="edgeStyle=none;curved=1;rounded=0;orthogonalLoop=1;jettySize=auto;html=1;fontSize=12;startSize=8;endSize=8;" edge="1" parent="1" source="c3Q7BcxyrKTCQpeKYszL-16" target="c3Q7BcxyrKTCQpeKYszL-19">
          <mxGeometry relative="1" as="geometry" />
        </mxCell>
        <mxCell id="c3Q7BcxyrKTCQpeKYszL-36" value="FALSE" style="edgeLabel;html=1;align=center;verticalAlign=middle;resizable=0;points=[];fontSize=12;" vertex="1" connectable="0" parent="c3Q7BcxyrKTCQpeKYszL-20">
          <mxGeometry x="-0.1333" y="2" relative="1" as="geometry">
            <mxPoint as="offset" />
          </mxGeometry>
        </mxCell>
        <mxCell id="c3Q7BcxyrKTCQpeKYszL-22" value="" style="edgeStyle=none;curved=1;rounded=0;orthogonalLoop=1;jettySize=auto;html=1;fontSize=12;startSize=8;endSize=8;" edge="1" parent="1" source="c3Q7BcxyrKTCQpeKYszL-16" target="c3Q7BcxyrKTCQpeKYszL-21">
          <mxGeometry relative="1" as="geometry" />
        </mxCell>
        <mxCell id="c3Q7BcxyrKTCQpeKYszL-33" value="TRUE" style="edgeLabel;html=1;align=center;verticalAlign=middle;resizable=0;points=[];fontSize=12;" vertex="1" connectable="0" parent="c3Q7BcxyrKTCQpeKYszL-22">
          <mxGeometry x="-0.1077" relative="1" as="geometry">
            <mxPoint as="offset" />
          </mxGeometry>
        </mxCell>
        <mxCell id="c3Q7BcxyrKTCQpeKYszL-16" value="n&amp;gt;=4" style="rhombus;whiteSpace=wrap;html=1;" vertex="1" parent="1">
          <mxGeometry x="100" y="200" width="120" height="80" as="geometry" />
        </mxCell>
        <mxCell id="c3Q7BcxyrKTCQpeKYszL-24" value="" style="edgeStyle=none;curved=1;rounded=0;orthogonalLoop=1;jettySize=auto;html=1;fontSize=12;startSize=8;endSize=8;" edge="1" parent="1" source="c3Q7BcxyrKTCQpeKYszL-19" target="c3Q7BcxyrKTCQpeKYszL-23">
          <mxGeometry relative="1" as="geometry" />
        </mxCell>
        <mxCell id="c3Q7BcxyrKTCQpeKYszL-34" value="TRUE" style="edgeLabel;html=1;align=center;verticalAlign=middle;resizable=0;points=[];fontSize=12;" vertex="1" connectable="0" parent="c3Q7BcxyrKTCQpeKYszL-24">
          <mxGeometry x="-0.056" y="-1" relative="1" as="geometry">
            <mxPoint as="offset" />
          </mxGeometry>
        </mxCell>
        <mxCell id="c3Q7BcxyrKTCQpeKYszL-26" value="" style="edgeStyle=none;curved=1;rounded=0;orthogonalLoop=1;jettySize=auto;html=1;fontSize=12;startSize=8;endSize=8;" edge="1" parent="1" source="c3Q7BcxyrKTCQpeKYszL-19" target="c3Q7BcxyrKTCQpeKYszL-25">
          <mxGeometry relative="1" as="geometry" />
        </mxCell>
        <mxCell id="c3Q7BcxyrKTCQpeKYszL-37" value="FALSE" style="edgeLabel;html=1;align=center;verticalAlign=middle;resizable=0;points=[];fontSize=12;" vertex="1" connectable="0" parent="c3Q7BcxyrKTCQpeKYszL-26">
          <mxGeometry x="-0.15" y="-1" relative="1" as="geometry">
            <mxPoint as="offset" />
          </mxGeometry>
        </mxCell>
        <mxCell id="c3Q7BcxyrKTCQpeKYszL-19" value="n==3" style="rhombus;whiteSpace=wrap;html=1;" vertex="1" parent="1">
          <mxGeometry x="105" y="370" width="110" height="80" as="geometry" />
        </mxCell>
        <mxCell id="c3Q7BcxyrKTCQpeKYszL-42" value="" style="edgeStyle=none;curved=1;rounded=0;orthogonalLoop=1;jettySize=auto;html=1;fontSize=12;startSize=8;endSize=8;" edge="1" parent="1" source="c3Q7BcxyrKTCQpeKYszL-21" target="c3Q7BcxyrKTCQpeKYszL-41">
          <mxGeometry relative="1" as="geometry" />
        </mxCell>
        <mxCell id="c3Q7BcxyrKTCQpeKYszL-21" value="write nth" style="shape=parallelogram;perimeter=parallelogramPerimeter;whiteSpace=wrap;html=1;fixedSize=1;" vertex="1" parent="1">
          <mxGeometry x="340" y="210" width="120" height="60" as="geometry" />
        </mxCell>
        <mxCell id="c3Q7BcxyrKTCQpeKYszL-44" value="" style="edgeStyle=none;curved=1;rounded=0;orthogonalLoop=1;jettySize=auto;html=1;fontSize=12;startSize=8;endSize=8;" edge="1" parent="1" source="c3Q7BcxyrKTCQpeKYszL-23" target="c3Q7BcxyrKTCQpeKYszL-43">
          <mxGeometry relative="1" as="geometry" />
        </mxCell>
        <mxCell id="c3Q7BcxyrKTCQpeKYszL-23" value="write 3rd" style="shape=parallelogram;perimeter=parallelogramPerimeter;whiteSpace=wrap;html=1;fixedSize=1;" vertex="1" parent="1">
          <mxGeometry x="330" y="380" width="120" height="60" as="geometry" />
        </mxCell>
        <mxCell id="c3Q7BcxyrKTCQpeKYszL-28" value="" style="edgeStyle=none;curved=1;rounded=0;orthogonalLoop=1;jettySize=auto;html=1;fontSize=12;startSize=8;endSize=8;" edge="1" parent="1" source="c3Q7BcxyrKTCQpeKYszL-25">
          <mxGeometry relative="1" as="geometry">
            <mxPoint x="160" y="770" as="targetPoint" />
          </mxGeometry>
        </mxCell>
        <mxCell id="c3Q7BcxyrKTCQpeKYszL-38" value="FALSE" style="edgeLabel;html=1;align=center;verticalAlign=middle;resizable=0;points=[];fontSize=12;" vertex="1" connectable="0" parent="c3Q7BcxyrKTCQpeKYszL-28">
          <mxGeometry x="-0.2" y="2" relative="1" as="geometry">
            <mxPoint as="offset" />
          </mxGeometry>
        </mxCell>
        <mxCell id="c3Q7BcxyrKTCQpeKYszL-30" value="" style="edgeStyle=none;curved=1;rounded=0;orthogonalLoop=1;jettySize=auto;html=1;fontSize=12;startSize=8;endSize=8;" edge="1" parent="1" source="c3Q7BcxyrKTCQpeKYszL-25" target="c3Q7BcxyrKTCQpeKYszL-29">
          <mxGeometry relative="1" as="geometry" />
        </mxCell>
        <mxCell id="c3Q7BcxyrKTCQpeKYszL-35" value="TRUE" style="edgeLabel;html=1;align=center;verticalAlign=middle;resizable=0;points=[];fontSize=12;" vertex="1" connectable="0" parent="c3Q7BcxyrKTCQpeKYszL-30">
          <mxGeometry x="0.024" y="2" relative="1" as="geometry">
            <mxPoint as="offset" />
          </mxGeometry>
        </mxCell>
        <mxCell id="c3Q7BcxyrKTCQpeKYszL-25" value="n==2" style="rhombus;whiteSpace=wrap;html=1;" vertex="1" parent="1">
          <mxGeometry x="105" y="570" width="110" height="80" as="geometry" />
        </mxCell>
        <mxCell id="c3Q7BcxyrKTCQpeKYszL-46" value="" style="edgeStyle=none;curved=1;rounded=0;orthogonalLoop=1;jettySize=auto;html=1;fontSize=12;startSize=8;endSize=8;" edge="1" parent="1" source="c3Q7BcxyrKTCQpeKYszL-29" target="c3Q7BcxyrKTCQpeKYszL-45">
          <mxGeometry relative="1" as="geometry" />
        </mxCell>
        <mxCell id="c3Q7BcxyrKTCQpeKYszL-29" value="write 2nd" style="shape=parallelogram;perimeter=parallelogramPerimeter;whiteSpace=wrap;html=1;fixedSize=1;" vertex="1" parent="1">
          <mxGeometry x="330" y="580" width="120" height="60" as="geometry" />
        </mxCell>
        <mxCell id="c3Q7BcxyrKTCQpeKYszL-51" value="" style="edgeStyle=none;curved=1;rounded=0;orthogonalLoop=1;jettySize=auto;html=1;fontSize=12;startSize=8;endSize=8;" edge="1" parent="1" source="c3Q7BcxyrKTCQpeKYszL-31" target="c3Q7BcxyrKTCQpeKYszL-50">
          <mxGeometry relative="1" as="geometry" />
        </mxCell>
        <mxCell id="c3Q7BcxyrKTCQpeKYszL-31" value="write 1st" style="shape=parallelogram;perimeter=parallelogramPerimeter;whiteSpace=wrap;html=1;fixedSize=1;" vertex="1" parent="1">
          <mxGeometry x="100" y="770" width="120" height="60" as="geometry" />
        </mxCell>
        <mxCell id="c3Q7BcxyrKTCQpeKYszL-47" value="" style="edgeStyle=none;curved=1;rounded=0;orthogonalLoop=1;jettySize=auto;html=1;fontSize=12;startSize=8;endSize=8;" edge="1" parent="1" source="c3Q7BcxyrKTCQpeKYszL-41" target="c3Q7BcxyrKTCQpeKYszL-43">
          <mxGeometry relative="1" as="geometry" />
        </mxCell>
        <mxCell id="c3Q7BcxyrKTCQpeKYszL-41" value="" style="shape=waypoint;sketch=0;size=6;pointerEvents=1;points=[];fillColor=default;resizable=0;rotatable=0;perimeter=centerPerimeter;snapToPoint=1;" vertex="1" parent="1">
          <mxGeometry x="630" y="230" width="20" height="20" as="geometry" />
        </mxCell>
        <mxCell id="c3Q7BcxyrKTCQpeKYszL-49" value="" style="edgeStyle=none;curved=1;rounded=0;orthogonalLoop=1;jettySize=auto;html=1;fontSize=12;startSize=8;endSize=8;" edge="1" parent="1" source="c3Q7BcxyrKTCQpeKYszL-43" target="c3Q7BcxyrKTCQpeKYszL-48">
          <mxGeometry relative="1" as="geometry" />
        </mxCell>
        <mxCell id="c3Q7BcxyrKTCQpeKYszL-43" value="" style="shape=waypoint;sketch=0;size=6;pointerEvents=1;points=[];fillColor=default;resizable=0;rotatable=0;perimeter=centerPerimeter;snapToPoint=1;" vertex="1" parent="1">
          <mxGeometry x="630" y="400" width="20" height="20" as="geometry" />
        </mxCell>
        <mxCell id="c3Q7BcxyrKTCQpeKYszL-45" value="" style="shape=waypoint;sketch=0;size=6;pointerEvents=1;points=[];fillColor=default;resizable=0;rotatable=0;perimeter=centerPerimeter;snapToPoint=1;" vertex="1" parent="1">
          <mxGeometry x="630" y="600" width="20" height="20" as="geometry" />
        </mxCell>
        <mxCell id="c3Q7BcxyrKTCQpeKYszL-56" value="" style="edgeStyle=none;curved=1;rounded=0;orthogonalLoop=1;jettySize=auto;html=1;fontSize=12;startSize=8;endSize=8;" edge="1" parent="1" source="c3Q7BcxyrKTCQpeKYszL-48" target="c3Q7BcxyrKTCQpeKYszL-55">
          <mxGeometry relative="1" as="geometry" />
        </mxCell>
        <mxCell id="c3Q7BcxyrKTCQpeKYszL-48" value="" style="shape=waypoint;sketch=0;size=6;pointerEvents=1;points=[];fillColor=default;resizable=0;rotatable=0;perimeter=centerPerimeter;snapToPoint=1;" vertex="1" parent="1">
          <mxGeometry x="630" y="600" width="20" height="20" as="geometry" />
        </mxCell>
        <mxCell id="c3Q7BcxyrKTCQpeKYszL-53" value="" style="edgeStyle=none;curved=1;rounded=0;orthogonalLoop=1;jettySize=auto;html=1;fontSize=12;startSize=8;endSize=8;" edge="1" parent="1" source="c3Q7BcxyrKTCQpeKYszL-50">
          <mxGeometry relative="1" as="geometry">
            <mxPoint x="620" y="800" as="targetPoint" />
          </mxGeometry>
        </mxCell>
        <mxCell id="c3Q7BcxyrKTCQpeKYszL-50" value="" style="shape=waypoint;sketch=0;size=6;pointerEvents=1;points=[];fillColor=default;resizable=0;rotatable=0;perimeter=centerPerimeter;snapToPoint=1;" vertex="1" parent="1">
          <mxGeometry x="620" y="790" width="20" height="20" as="geometry" />
        </mxCell>
        <mxCell id="c3Q7BcxyrKTCQpeKYszL-58" value="" style="edgeStyle=none;curved=1;rounded=0;orthogonalLoop=1;jettySize=auto;html=1;fontSize=12;startSize=8;endSize=8;" edge="1" parent="1" source="c3Q7BcxyrKTCQpeKYszL-54" target="c3Q7BcxyrKTCQpeKYszL-57">
          <mxGeometry relative="1" as="geometry" />
        </mxCell>
        <mxCell id="c3Q7BcxyrKTCQpeKYszL-54" value="" style="ellipse;whiteSpace=wrap;html=1;aspect=fixed;" vertex="1" parent="1">
          <mxGeometry x="630" y="790" width="20" height="20" as="geometry" />
        </mxCell>
        <mxCell id="c3Q7BcxyrKTCQpeKYszL-55" value="" style="shape=waypoint;sketch=0;size=6;pointerEvents=1;points=[];fillColor=default;resizable=0;rotatable=0;perimeter=centerPerimeter;snapToPoint=1;" vertex="1" parent="1">
          <mxGeometry x="630" y="780" width="20" height="20" as="geometry" />
        </mxCell>
        <mxCell id="c3Q7BcxyrKTCQpeKYszL-57" value="END" style="ellipse;whiteSpace=wrap;html=1;" vertex="1" parent="1">
          <mxGeometry x="580" y="860" width="120" height="80" as="geometry" />
        </mxCell>
      </root>
    </mxGraphModel>
  </diagram>
</mxfile>
